<svg version="1.0" xmlns="http://www.w3.org/2000/svg" width="682.667" height="682.667" viewBox="0 0 512 512"><path d="M255.9 5.4c-.2.2-5.5.6-11.7.9-6.2.4-11.6.8-12 1.1-.4.2-2.8.7-5.4 1-6.6.9-20.2 5-30.6 9.1-20.5 8.3-44.8 25.7-57.7 41.5-10.2 12.5-15.1 19.9-21.6 33-10.7 21.5-15.6 43.2-15.7 69-.1 32.3 8.6 60.6 27 87.9 6.5 9.5 9 12.4 20.3 23.4 13.4 13.1 29.8 24 45.5 30.5 3 1.3 6.4 2.7 7.5 3.2 5.6 2.4 21.1 6.6 28.1 7.6 2.7.3 5.8.8 6.9 1 1.1.2 6.8.6 12.6.9 15.8.8 20.4 2.1 27.6 7.4 12.4 9.4 17.2 25.1 12.2 40-4.1 12.1-17.9 22.8-30.4 23.5-18.4 1-35.4-12.8-37.2-30l-.6-5.4-5.6-.1H205c-11.3.1-32 0-48.8-.2-15.6-.2-18.2 0-18.2 1.3 0 .9-.3 1.1-.8.4-.4-.6-7.5-1.1-18.6-1.3l-17.9-.3.7 10.8c.4 5.9.8 11 1.1 11.4.2.3.6 2.6.9 5.1 2 16.7 12.2 41.8 23.9 59.4 10.6 15.9 27.2 32.5 42.7 42.6 17.6 11.5 40.2 20.6 58.4 23.5 2.1.3 4.8.8 6 1.1 6 1.4 34.6 1 45.7-.7 57.2-8.8 104.2-48.5 122.8-103.5 5.6-16.8 7.4-27.9 7.5-46.5.1-18-.6-25.3-3.9-38.7-8.6-35.4-25.9-62.5-55.6-86.8-16.6-13.6-45.8-26.6-67.4-30.1-2-.3-4.7-.7-5.8-1-1.1-.2-6.3-.6-11.6-1-18.1-1.1-20.2-1.5-26.4-4.6-9-4.5-16.7-14.7-18.5-24.5-3.3-18.3 6.9-34.8 25.1-40.4 8.5-2.7 15.6-2.1 24.2 2 10.9 5.1 17.5 13.8 19.8 26l1.1 5.9 39.1.1c21.4.1 39.7.1 40.5.1.8 0 10.2-.1 20.8-.2l19.2-.3V156c-.1-8.3-2.1-21.6-5.1-33.9-7.9-32.1-29.1-64.3-55.4-84.2-16.2-12.4-41.6-24.7-56.2-27.3-1.3-.3-3.1-.7-4.1-1-4.9-1.5-18.8-3.4-26.1-3.6-3.6 0-6.8-.3-7.2-.5-.3-.3-.8-.3-1-.1zm12.8 56.2c-.3.3-1.2.4-1.9.1-.8-.3-.5-.6.6-.6 1.1-.1 1.7.2 1.3.5zm11 2c-.3.3-1.2.4-1.9.1-.8-.3-.5-.6.6-.6 1.1-.1 1.7.2 1.3.5zm21.3 8c0 .2-.9 0-2-.6s-2-1.3-2-1.6c0-.2.9 0 2 .6s2 1.3 2 1.6zm27 18.9c1.3 1.4 2.1 2.5 1.8 2.5-.2 0-1.5-1.1-2.8-2.5-1.3-1.4-2.1-2.5-1.8-2.5.2 0 1.5 1.1 2.8 2.5zm9.1 11.2c1.3 1.6 1.2 1.7-.3.4-1.7-1.3-2.2-2.1-1.4-2.1.2 0 1 .8 1.7 1.7zM188.5 411c1 1.1 1.6 2 1.3 2-.3 0-1.3-.9-2.3-2-1-1.1-1.6-2-1.3-2 .3 0 1.3.9 2.3 2zm-24 14c1 1.1 1.6 2 1.3 2-.3 0-1.3-.9-2.3-2-1-1.1-1.6-2-1.3-2 .3 0 1.3.9 2.3 2zm10 11c2.7 2.7 4.7 5 4.4 5-.3 0-2.7-2.3-5.4-5-2.7-2.8-4.7-5-4.4-5 .3 0 2.7 2.2 5.4 5zm8.5 7.5c1.3 1.4 2.1 2.5 1.8 2.5-.2 0-1.5-1.1-2.8-2.5-1.3-1.4-2.1-2.5-1.8-2.5.2 0 1.5 1.1 2.8 2.5zm7.6 5.6c.3.6-.5.3-2-.6-1.4-1-2.6-1.9-2.6-2.2 0-.7 3.9 1.7 4.6 2.8zm13.3 7.5c1.4 1.2-1.9.1-3.5-1.2-1.8-1.4-1.8-1.4.6-.3 1.4.6 2.7 1.3 2.9 1.5zm5.1 3c0 .2-.9 0-2-.6s-2-1.3-2-1.6c0-.2.9 0 2 .6s2 1.3 2 1.6zm5 1.4c.8.5 1.1 1 .5 1-.5 0-1.7-.5-2.5-1s-1-1-.5-1c.6 0 1.7.5 2.5 1zm14.3 4.7c-.7.2-1.9.2-2.5 0-.7-.3-.2-.5 1.2-.5s1.9.2 1.3.5zm10 2c-.7.2-2.1.2-3 0-1-.3-.4-.5 1.2-.5 1.7 0 2.4.2 1.8.5zm20.1 1.5c-.3.4-1.2.8-2 .8s-1.4-.4-1.4-.8.9-.8 1.9-.8c1.1 0 1.7.4 1.5.8zm11.3-.6c-.3.3-1.2.4-1.9.1-.8-.3-.5-.6.6-.6 1.1-.1 1.7.2 1.3.5z"/></svg>